<svg width="253" height="37" viewBox="0 0 253 37" fill="none" xmlns="http://www.w3.org/2000/svg">
<path d="M202.712 28.2888V0H208.184V28.2888H202.712ZM220.458 28.2888V0H225.93V28.2888H220.458ZM206.172 16.096V11.2672H221.987V16.096H206.172Z" fill="#CCFF00"/>
<path d="M234.932 16.4582V12.1927H241.491C242.833 12.1927 243.865 11.8574 244.59 11.1867C245.341 10.4893 245.717 9.5369 245.717 8.3297C245.717 7.2298 245.341 6.3177 244.59 5.59337C243.865 4.84223 242.833 4.46665 241.491 4.46665H234.932V0H241.974C243.798 0 245.395 0.36216 246.763 1.08648C248.158 1.78398 249.231 2.74974 249.982 3.98377C250.76 5.2178 251.149 6.63962 251.149 8.24922C251.149 9.91248 250.76 11.3611 249.982 12.5951C249.231 13.8024 248.158 14.7547 246.763 15.4522C245.368 16.1229 243.745 16.4582 241.894 16.4582H234.932ZM230.908 28.2888V0H236.381V28.2888H230.908ZM246.36 28.2888L237.025 16.0558L242.055 14.4864L253 28.2888H246.36Z" fill="#CCFF00"/>
<path d="M24.0563 12.5326V1.78434C24.0663 1.00055 23.4348 0.361547 22.648 0.351562C22.3523 0.351562 22.0666 0.436431 21.8211 0.606167L0.631478 14.7991C0.240563 15.0587 0.00501173 15.493 0 15.9573V26.8903C0 27.6741 0.641501 28.3081 1.42834 28.3131C1.71401 28.3131 1.98966 28.2282 2.22521 28.0735L21.0994 15.4431C21.7509 15.0038 22.638 15.1735 23.074 15.8225C23.2344 16.0571 23.3196 16.3367 23.3196 16.6213V26.8903C23.3196 27.6741 23.9611 28.3081 24.7479 28.3131H36.31C37.0968 28.3131 37.7333 27.6741 37.7333 26.8903V15.3782C37.7333 14.5944 37.1018 13.9604 36.315 13.9554C36.315 13.9554 36.315 13.9554 36.31 13.9554H25.4696C24.6878 13.9454 24.0613 13.3114 24.0563 12.5326Z" fill="#CCFF00"/>
<path d="M62.4561 0.317383H69.6329L79.8969 28.2739H73.4418L71.2366 22.2832H60.5316L58.3665 28.2739H52.152L62.4561 0.317383ZM69.5928 17.291L65.8641 6.74739L62.1754 17.291H69.5928Z" fill="#CCFF00"/>
<path d="M113.767 16.7969V28.279H108.119V16.7969C108.119 13.8415 106.997 12.3039 104.611 12.3039C102.105 12.3039 100.521 14.0611 100.602 17.2162V28.279H94.9283V16.7969C94.9283 13.8415 93.8057 12.3039 91.3599 12.3039C88.9142 12.3039 87.3907 14.141 87.3907 17.0165V28.279H81.7374V7.75095H86.669L87.2052 9.80775C88.6987 8.2352 90.8087 7.39151 92.9787 7.49135C95.4846 7.49135 97.79 8.29011 99.1131 10.6465C100.516 8.68949 102.842 7.49135 106.089 7.49135C110.084 7.51132 113.767 9.5881 113.767 16.7969Z" fill="#CCFF00"/>
<path d="M137.821 18.0147C137.821 24.4047 133.651 28.4984 128.078 28.4984C125.272 28.4984 123.307 27.4999 122.024 26.142V36.2663H116.376V7.75061H121.307L121.869 10.1868C123.432 8.43455 125.693 7.45607 128.043 7.51098C133.656 7.47104 137.821 11.385 137.821 18.0147ZM132.047 17.9747C132.047 14.5401 130.083 12.1837 126.955 12.1837C123.828 12.1837 121.944 14.5401 121.944 17.9348C121.944 21.3295 123.868 23.8456 126.955 23.8456C130.043 23.8456 132.052 21.4493 132.052 17.9747H132.047Z" fill="#CCFF00"/>
<path d="M145.605 0.317383V28.2739H139.952V0.317383H145.605Z" fill="#CCFF00"/>
<path d="M157.869 7.50879C164.083 7.50879 168.394 11.3428 168.394 17.3735C168.394 18.0574 168.343 18.7363 168.233 19.4103H153.398V19.4902C153.639 22.3258 155.283 24.083 158.17 24.083C160.415 24.083 161.979 23.1245 162.46 21.2874H168.073C167.431 25.3211 163.983 28.5161 158.611 28.5161C151.674 28.5161 147.505 24.4025 147.505 18.0324C147.53 11.6224 151.659 7.50879 157.869 7.50879ZM162.72 15.4964C162.359 13.18 160.555 11.902 158.069 11.902C155.864 11.902 153.9 13.2199 153.559 15.4964H162.72Z" fill="#CCFF00"/>
<path d="M170.258 18.0179C170.258 11.7077 174.593 7.53418 181.129 7.53418C187.664 7.53418 191.994 11.7277 191.994 18.0179C191.994 24.3081 187.664 28.5016 181.129 28.5016C174.593 28.5016 170.258 24.3281 170.258 18.0179ZM186.221 18.0179C186.221 14.6232 184.296 12.2269 181.129 12.2269C177.961 12.2269 176.037 14.6232 176.037 18.0179C176.037 21.4126 177.961 23.7889 181.129 23.7889C184.296 23.7889 186.221 21.4126 186.221 18.0179Z" fill="#CCFF00"/>
<path d="M152.881 2.58008H163.065V5.63034H152.881V2.58008Z" fill="#CCFF00"/>
</svg>
