<svg xmlns="http://www.w3.org/2000/svg" viewBox="0 0 100 100" width="100" height="100">
  <circle cx="50" cy="50" r="50" fill="#0C2B1E"/>
  <svg x="11" y="11" width="78" height="78" viewBox="0 0 1970 1884" overflow="visible">
    <path d="M1255.64,638.284l0,-563.207c0.523,-41.07 -32.437,-74.554 -73.507,-75.077c-15.434,0 -30.345,4.447 -43.163,13.341l-1106.009,743.705c-20.404,13.603 -32.699,36.361 -32.961,60.689l0,572.886c0,41.07 33.484,74.292 74.554,74.554c14.911,0 29.298,-4.447 41.593,-12.556l985.154,-661.827c34.007,-23.02 80.309,-14.126 103.067,19.881c8.371,12.295 12.818,26.944 12.818,41.855l0,538.094c0,41.07 33.484,74.292 74.554,74.554l603.492,0c41.07,0 74.292,-33.484 74.292,-74.554l0,-603.23c0,-41.07 -32.961,-74.292 -74.03,-74.554l-566.084,0c-40.808,-0.523 -73.507,-33.745 -73.769,-74.554Z" fill="#C6FF00"/>
  </svg>
</svg>
